<svg class="rich-terminal" viewBox="0 0 1922 1026.0" xmlns="http://www.w3.org/2000/svg">
    <!-- Generated with Rich https://www.textualize.io -->
    <style>

    @font-face {
        font-family: "Fira Code";
        src: local("FiraCode-Regular"),
                url("https://cdnjs.cloudflare.com/ajax/libs/firacode/6.2.0/woff2/FiraCode-Regular.woff2") format("woff2"),
                url("https://cdnjs.cloudflare.com/ajax/libs/firacode/6.2.0/woff/FiraCode-Regular.woff") format("woff");
        font-style: normal;
        font-weight: 400;
    }
    @font-face {
        font-family: "Fira Code";
        src: local("FiraCode-Bold"),
                url("https://cdnjs.cloudflare.com/ajax/libs/firacode/6.2.0/woff2/FiraCode-Bold.woff2") format("woff2"),
                url("https://cdnjs.cloudflare.com/ajax/libs/firacode/6.2.0/woff/FiraCode-Bold.woff") format("woff");
        font-style: bold;
        font-weight: 700;
    }

    .terminal-3247667630-matrix {
        font-family: Fira Code, monospace;
        font-size: 20px;
        line-height: 24.4px;
        font-variant-east-asian: full-width;
    }

    .terminal-3247667630-title {
        font-size: 18px;
        font-weight: bold;
        font-family: arial;
    }

    .terminal-3247667630-r1 { fill: #c5c8c6 }
.terminal-3247667630-r2 { fill: #e3e3e3 }
.terminal-3247667630-r3 { fill: #e1e1e1 }
.terminal-3247667630-r4 { fill: #e2e2e2 }
.terminal-3247667630-r5 { fill: #14191f }
.terminal-3247667630-r6 { fill: #004578 }
.terminal-3247667630-r7 { fill: #262626 }
.terminal-3247667630-r8 { fill: #e2e2e2;font-weight: bold;text-decoration: underline; }
.terminal-3247667630-r9 { fill: #e2e2e2;font-weight: bold }
.terminal-3247667630-r10 { fill: #7ae998 }
.terminal-3247667630-r11 { fill: #0a180e;font-weight: bold }
.terminal-3247667630-r12 { fill: #008139 }
.terminal-3247667630-r13 { fill: #dde8f3;font-weight: bold }
.terminal-3247667630-r14 { fill: #ddedf9 }
.terminal-3247667630-r15 { fill: #fef3e3;font-weight: bold }
.terminal-3247667630-r16 { fill: #ddeaf6 }
    </style>

    <defs>
    <clipPath id="terminal-3247667630-clip-terminal">
      <rect x="0" y="0" width="1902.1999999999998" height="975.0" />
    </clipPath>
    <clipPath id="terminal-3247667630-line-0">
    <rect x="0" y="1.5" width="1903.2" height="24.65"/>
            </clipPath>
<clipPath id="terminal-3247667630-line-1">
    <rect x="0" y="25.9" width="1903.2" height="24.65"/>
            </clipPath>
<clipPath id="terminal-3247667630-line-2">
    <rect x="0" y="50.3" width="1903.2" height="24.65"/>
            </clipPath>
<clipPath id="terminal-3247667630-line-3">
    <rect x="0" y="74.7" width="1903.2" height="24.65"/>
            </clipPath>
<clipPath id="terminal-3247667630-line-4">
    <rect x="0" y="99.1" width="1903.2" height="24.65"/>
            </clipPath>
<clipPath id="terminal-3247667630-line-5">
    <rect x="0" y="123.5" width="1903.2" height="24.65"/>
            </clipPath>
<clipPath id="terminal-3247667630-line-6">
    <rect x="0" y="147.9" width="1903.2" height="24.65"/>
            </clipPath>
<clipPath id="terminal-3247667630-line-7">
    <rect x="0" y="172.3" width="1903.2" height="24.65"/>
            </clipPath>
<clipPath id="terminal-3247667630-line-8">
    <rect x="0" y="196.7" width="1903.2" height="24.65"/>
            </clipPath>
<clipPath id="terminal-3247667630-line-9">
    <rect x="0" y="221.1" width="1903.2" height="24.65"/>
            </clipPath>
<clipPath id="terminal-3247667630-line-10">
    <rect x="0" y="245.5" width="1903.2" height="24.65"/>
            </clipPath>
<clipPath id="terminal-3247667630-line-11">
    <rect x="0" y="269.9" width="1903.2" height="24.65"/>
            </clipPath>
<clipPath id="terminal-3247667630-line-12">
    <rect x="0" y="294.3" width="1903.2" height="24.65"/>
            </clipPath>
<clipPath id="terminal-3247667630-line-13">
    <rect x="0" y="318.7" width="1903.2" height="24.65"/>
            </clipPath>
<clipPath id="terminal-3247667630-line-14">
    <rect x="0" y="343.1" width="1903.2" height="24.65"/>
            </clipPath>
<clipPath id="terminal-3247667630-line-15">
    <rect x="0" y="367.5" width="1903.2" height="24.65"/>
            </clipPath>
<clipPath id="terminal-3247667630-line-16">
    <rect x="0" y="391.9" width="1903.2" height="24.65"/>
            </clipPath>
<clipPath id="terminal-3247667630-line-17">
    <rect x="0" y="416.3" width="1903.2" height="24.65"/>
            </clipPath>
<clipPath id="terminal-3247667630-line-18">
    <rect x="0" y="440.7" width="1903.2" height="24.65"/>
            </clipPath>
<clipPath id="terminal-3247667630-line-19">
    <rect x="0" y="465.1" width="1903.2" height="24.65"/>
            </clipPath>
<clipPath id="terminal-3247667630-line-20">
    <rect x="0" y="489.5" width="1903.2" height="24.65"/>
            </clipPath>
<clipPath id="terminal-3247667630-line-21">
    <rect x="0" y="513.9" width="1903.2" height="24.65"/>
            </clipPath>
<clipPath id="terminal-3247667630-line-22">
    <rect x="0" y="538.3" width="1903.2" height="24.65"/>
            </clipPath>
<clipPath id="terminal-3247667630-line-23">
    <rect x="0" y="562.7" width="1903.2" height="24.65"/>
            </clipPath>
<clipPath id="terminal-3247667630-line-24">
    <rect x="0" y="587.1" width="1903.2" height="24.65"/>
            </clipPath>
<clipPath id="terminal-3247667630-line-25">
    <rect x="0" y="611.5" width="1903.2" height="24.65"/>
            </clipPath>
<clipPath id="terminal-3247667630-line-26">
    <rect x="0" y="635.9" width="1903.2" height="24.65"/>
            </clipPath>
<clipPath id="terminal-3247667630-line-27">
    <rect x="0" y="660.3" width="1903.2" height="24.65"/>
            </clipPath>
<clipPath id="terminal-3247667630-line-28">
    <rect x="0" y="684.7" width="1903.2" height="24.65"/>
            </clipPath>
<clipPath id="terminal-3247667630-line-29">
    <rect x="0" y="709.1" width="1903.2" height="24.65"/>
            </clipPath>
<clipPath id="terminal-3247667630-line-30">
    <rect x="0" y="733.5" width="1903.2" height="24.65"/>
            </clipPath>
<clipPath id="terminal-3247667630-line-31">
    <rect x="0" y="757.9" width="1903.2" height="24.65"/>
            </clipPath>
<clipPath id="terminal-3247667630-line-32">
    <rect x="0" y="782.3" width="1903.2" height="24.65"/>
            </clipPath>
<clipPath id="terminal-3247667630-line-33">
    <rect x="0" y="806.7" width="1903.2" height="24.65"/>
            </clipPath>
<clipPath id="terminal-3247667630-line-34">
    <rect x="0" y="831.1" width="1903.2" height="24.65"/>
            </clipPath>
<clipPath id="terminal-3247667630-line-35">
    <rect x="0" y="855.5" width="1903.2" height="24.65"/>
            </clipPath>
<clipPath id="terminal-3247667630-line-36">
    <rect x="0" y="879.9" width="1903.2" height="24.65"/>
            </clipPath>
<clipPath id="terminal-3247667630-line-37">
    <rect x="0" y="904.3" width="1903.2" height="24.65"/>
            </clipPath>
<clipPath id="terminal-3247667630-line-38">
    <rect x="0" y="928.7" width="1903.2" height="24.65"/>
            </clipPath>
    </defs>

    <rect fill="#292929" stroke="rgba(255,255,255,0.35)" stroke-width="1" x="1" y="1" width="1920" height="1024" rx="8"/><text class="terminal-3247667630-title" fill="#c5c8c6" text-anchor="middle" x="960" y="27">Textual&#160;Demo</text>
            <g transform="translate(26,22)">
            <circle cx="0" cy="0" r="7" fill="#ff5f57"/>
            <circle cx="22" cy="0" r="7" fill="#febc2e"/>
            <circle cx="44" cy="0" r="7" fill="#28c840"/>
            </g>
        
    <g transform="translate(9, 41)" clip-path="url(#terminal-3247667630-clip-terminal)">
    <rect fill="#282828" x="0" y="1.5" width="12.2" height="24.65" shape-rendering="crispEdges"/><rect fill="#282828" x="12.2" y="1.5" width="12.2" height="24.65" shape-rendering="crispEdges"/><rect fill="#282828" x="24.4" y="1.5" width="61" height="24.65" shape-rendering="crispEdges"/><rect fill="#282828" x="85.4" y="1.5" width="12.2" height="24.65" shape-rendering="crispEdges"/><rect fill="#282828" x="97.6" y="1.5" width="768.6" height="24.65" shape-rendering="crispEdges"/><rect fill="#282828" x="866.2" y="1.5" width="146.4" height="24.65" shape-rendering="crispEdges"/><rect fill="#282828" x="1012.6" y="1.5" width="768.6" height="24.65" shape-rendering="crispEdges"/><rect fill="#282828" x="1781.2" y="1.5" width="12.2" height="24.65" shape-rendering="crispEdges"/><rect fill="#282828" x="1793.4" y="1.5" width="0" height="24.65" shape-rendering="crispEdges"/><rect fill="#282828" x="1793.4" y="1.5" width="97.6" height="24.65" shape-rendering="crispEdges"/><rect fill="#282828" x="1891" y="1.5" width="12.2" height="24.65" shape-rendering="crispEdges"/><rect fill="#1e1e1e" x="0" y="25.9" width="0" height="24.65" shape-rendering="crispEdges"/><rect fill="#1e1e1e" x="0" y="25.9" width="366" height="24.65" shape-rendering="crispEdges"/><rect fill="#1e1e1e" x="366" y="25.9" width="0" height="24.65" shape-rendering="crispEdges"/><rect fill="#1e1e1e" x="366" y="25.9" width="1512.8" height="24.65" shape-rendering="crispEdges"/><rect fill="#23568b" x="1878.8" y="25.9" width="24.4" height="24.65" shape-rendering="crispEdges"/><rect fill="#1e1e1e" x="0" y="50.3" width="12.2" height="24.65" shape-rendering="crispEdges"/><rect fill="#262626" x="12.2" y="50.3" width="353.8" height="24.65" shape-rendering="crispEdges"/><rect fill="#1e1e1e" x="366" y="50.3" width="1512.8" height="24.65" shape-rendering="crispEdges"/><rect fill="#23568b" x="1878.8" y="50.3" width="24.4" height="24.65" shape-rendering="crispEdges"/><rect fill="#1e1e1e" x="0" y="74.7" width="12.2" height="24.65" shape-rendering="crispEdges"/><rect fill="#262626" x="12.2" y="74.7" width="24.4" height="24.65" shape-rendering="crispEdges"/><rect fill="#262626" x="36.6" y="74.7" width="134.2" height="24.65" shape-rendering="crispEdges"/><rect fill="#262626" x="170.8" y="74.7" width="36.6" height="24.65" shape-rendering="crispEdges"/><rect fill="#262626" x="207.4" y="74.7" width="134.2" height="24.65" shape-rendering="crispEdges"/><rect fill="#262626" x="341.6" y="74.7" width="24.4" height="24.65" shape-rendering="crispEdges"/><rect fill="#1e1e1e" x="366" y="74.7" width="1512.8" height="24.65" shape-rendering="crispEdges"/><rect fill="#23568b" x="1878.8" y="74.7" width="24.4" height="24.65" shape-rendering="crispEdges"/><rect fill="#1e1e1e" x="0" y="99.1" width="12.2" height="24.65" shape-rendering="crispEdges"/><rect fill="#262626" x="12.2" y="99.1" width="353.8" height="24.65" shape-rendering="crispEdges"/><rect fill="#1e1e1e" x="366" y="99.1" width="1512.8" height="24.65" shape-rendering="crispEdges"/><rect fill="#23568b" x="1878.8" y="99.1" width="24.4" height="24.65" shape-rendering="crispEdges"/><rect fill="#1e1e1e" x="0" y="123.5" width="366" height="24.65" shape-rendering="crispEdges"/><rect fill="#1e1e1e" x="366" y="123.5" width="1512.8" height="24.65" shape-rendering="crispEdges"/><rect fill="#23568b" x="1878.8" y="123.5" width="24.4" height="24.65" shape-rendering="crispEdges"/><rect fill="#1e1e1e" x="0" y="147.9" width="12.2" height="24.65" shape-rendering="crispEdges"/><rect fill="#262626" x="12.2" y="147.9" width="353.8" height="24.65" shape-rendering="crispEdges"/><rect fill="#1e1e1e" x="366" y="147.9" width="1512.8" height="24.65" shape-rendering="crispEdges"/><rect fill="#23568b" x="1878.8" y="147.9" width="24.4" height="24.65" shape-rendering="crispEdges"/><rect fill="#1e1e1e" x="0" y="172.3" width="12.2" height="24.65" shape-rendering="crispEdges"/><rect fill="#262626" x="12.2" y="172.3" width="24.4" height="24.65" shape-rendering="crispEdges"/><rect fill="#262626" x="36.6" y="172.3" width="109.8" height="24.65" shape-rendering="crispEdges"/><rect fill="#262626" x="146.4" y="172.3" width="85.4" height="24.65" shape-rendering="crispEdges"/><rect fill="#262626" x="231.8" y="172.3" width="109.8" height="24.65" shape-rendering="crispEdges"/><rect fill="#262626" x="341.6" y="172.3" width="24.4" height="24.65" shape-rendering="crispEdges"/><rect fill="#1e1e1e" x="366" y="172.3" width="1512.8" height="24.65" shape-rendering="crispEdges"/><rect fill="#23568b" x="1878.8" y="172.3" width="24.4" height="24.65" shape-rendering="crispEdges"/><rect fill="#1e1e1e" x="0" y="196.7" width="12.2" height="24.65" shape-rendering="crispEdges"/><rect fill="#262626" x="12.2" y="196.7" width="353.8" height="24.65" shape-rendering="crispEdges"/><rect fill="#1e1e1e" x="366" y="196.7" width="1512.8" height="24.65" shape-rendering="crispEdges"/><rect fill="#23568b" x="1878.8" y="196.7" width="24.4" height="24.65" shape-rendering="crispEdges"/><rect fill="#1e1e1e" x="0" y="221.1" width="366" height="24.65" shape-rendering="crispEdges"/><rect fill="#1e1e1e" x="366" y="221.1" width="1512.8" height="24.65" shape-rendering="crispEdges"/><rect fill="#14191f" x="1878.8" y="221.1" width="24.4" height="24.65" shape-rendering="crispEdges"/><rect fill="#1e1e1e" x="0" y="245.5" width="12.2" height="24.65" shape-rendering="crispEdges"/><rect fill="#262626" x="12.2" y="245.5" width="353.8" height="24.65" shape-rendering="crispEdges"/><rect fill="#1e1e1e" x="366" y="245.5" width="1512.8" height="24.65" shape-rendering="crispEdges"/><rect fill="#14191f" x="1878.8" y="245.5" width="24.4" height="24.65" shape-rendering="crispEdges"/><rect fill="#1e1e1e" x="0" y="269.9" width="12.2" height="24.65" shape-rendering="crispEdges"/><rect fill="#262626" x="12.2" y="269.9" width="24.4" height="24.65" shape-rendering="crispEdges"/><rect fill="#262626" x="36.6" y="269.9" width="73.2" height="24.65" shape-rendering="crispEdges"/><rect fill="#262626" x="109.8" y="269.9" width="146.4" height="24.65" shape-rendering="crispEdges"/><rect fill="#262626" x="256.2" y="269.9" width="85.4" height="24.65" shape-rendering="crispEdges"/><rect fill="#262626" x="341.6" y="269.9" width="24.4" height="24.65" shape-rendering="crispEdges"/><rect fill="#1e1e1e" x="366" y="269.9" width="1512.8" height="24.65" shape-rendering="crispEdges"/><rect fill="#14191f" x="1878.8" y="269.9" width="24.4" height="24.65" shape-rendering="crispEdges"/><rect fill="#1e1e1e" x="0" y="294.3" width="12.2" height="24.65" shape-rendering="crispEdges"/><rect fill="#262626" x="12.2" y="294.3" width="353.8" height="24.65" shape-rendering="crispEdges"/><rect fill="#1e1e1e" x="366" y="294.3" width="1512.8" height="24.65" shape-rendering="crispEdges"/><rect fill="#14191f" x="1878.8" y="294.3" width="24.4" height="24.65" shape-rendering="crispEdges"/><rect fill="#1e1e1e" x="0" y="318.7" width="366" height="24.65" shape-rendering="crispEdges"/><rect fill="#1e1e1e" x="366" y="318.7" width="1512.8" height="24.65" shape-rendering="crispEdges"/><rect fill="#14191f" x="1878.8" y="318.7" width="24.4" height="24.65" shape-rendering="crispEdges"/><rect fill="#1e1e1e" x="0" y="343.1" width="12.2" height="24.65" shape-rendering="crispEdges"/><rect fill="#262626" x="12.2" y="343.1" width="353.8" height="24.65" shape-rendering="crispEdges"/><rect fill="#1e1e1e" x="366" y="343.1" width="146.4" height="24.65" shape-rendering="crispEdges"/><rect fill="#1e1e1e" x="512.4" y="343.1" width="12.2" height="24.65" shape-rendering="crispEdges"/><rect fill="#1e1e1e" x="524.6" y="343.1" width="1195.6" height="24.65" shape-rendering="crispEdges"/><rect fill="#1e1e1e" x="1720.2" y="343.1" width="12.2" height="24.65" shape-rendering="crispEdges"/><rect fill="#1e1e1e" x="1732.4" y="343.1" width="146.4" height="24.65" shape-rendering="crispEdges"/><rect fill="#14191f" x="1878.8" y="343.1" width="24.4" height="24.65" shape-rendering="crispEdges"/><rect fill="#1e1e1e" x="0" y="367.5" width="12.2" height="24.65" shape-rendering="crispEdges"/><rect fill="#262626" x="12.2" y="367.5" width="24.4" height="24.65" shape-rendering="crispEdges"/><rect fill="#262626" x="36.6" y="367.5" width="134.2" height="24.65" shape-rendering="crispEdges"/><rect fill="#262626" x="170.8" y="367.5" width="36.6" height="24.65" shape-rendering="crispEdges"/><rect fill="#262626" x="207.4" y="367.5" width="134.2" height="24.65" shape-rendering="crispEdges"/><rect fill="#262626" x="341.6" y="367.5" width="24.4" height="24.65" shape-rendering="crispEdges"/><rect fill="#1e1e1e" x="366" y="367.5" width="146.4" height="24.65" shape-rendering="crispEdges"/><rect fill="#262626" x="512.4" y="367.5" width="12.2" height="24.65" shape-rendering="crispEdges"/><rect fill="#262626" x="524.6" y="367.5" width="1195.6" height="24.65" shape-rendering="crispEdges"/><rect fill="#004578" x="1720.2" y="367.5" width="12.2" height="24.65" shape-rendering="crispEdges"/><rect fill="#1e1e1e" x="1732.4" y="367.5" width="146.4" height="24.65" shape-rendering="crispEdges"/><rect fill="#14191f" x="1878.8" y="367.5" width="24.4" height="24.65" shape-rendering="crispEdges"/><rect fill="#1e1e1e" x="0" y="391.9" width="12.2" height="24.65" shape-rendering="crispEdges"/><rect fill="#262626" x="12.2" y="391.9" width="353.8" height="24.65" shape-rendering="crispEdges"/><rect fill="#1e1e1e" x="366" y="391.9" width="146.4" height="24.65" shape-rendering="crispEdges"/><rect fill="#262626" x="512.4" y="391.9" width="12.2" height="24.65" shape-rendering="crispEdges"/><rect fill="#262626" x="524.6" y="391.9" width="24.4" height="24.65" shape-rendering="crispEdges"/><rect fill="#262626" x="549" y="391.9" width="0" height="24.65" shape-rendering="crispEdges"/><rect fill="#262626" x="549" y="391.9" width="1146.8" height="24.65" shape-rendering="crispEdges"/><rect fill="#262626" x="1695.8" y="391.9" width="24.4" height="24.65" shape-rendering="crispEdges"/><rect fill="#004578" x="1720.2" y="391.9" width="12.2" height="24.65" shape-rendering="crispEdges"/><rect fill="#1e1e1e" x="1732.4" y="391.9" width="146.4" height="24.65" shape-rendering="crispEdges"/><rect fill="#14191f" x="1878.8" y="391.9" width="24.4" height="24.65" shape-rendering="crispEdges"/><rect fill="#1e1e1e" x="0" y="416.3" width="366" height="24.65" shape-rendering="crispEdges"/><rect fill="#1e1e1e" x="366" y="416.3" width="146.4" height="24.65" shape-rendering="crispEdges"/><rect fill="#262626" x="512.4" y="416.3" width="12.2" height="24.65" shape-rendering="crispEdges"/><rect fill="#262626" x="524.6" y="416.3" width="24.4" height="24.65" shape-rendering="crispEdges"/><rect fill="#262626" x="549" y="416.3" width="500.2" height="24.65" shape-rendering="crispEdges"/><rect fill="#262626" x="1049.2" y="416.3" width="146.4" height="24.65" shape-rendering="crispEdges"/><rect fill="#262626" x="1195.6" y="416.3" width="500.2" height="24.65" shape-rendering="crispEdges"/><rect fill="#262626" x="1695.8" y="416.3" width="24.4" height="24.65" shape-rendering="crispEdges"/><rect fill="#004578" x="1720.2" y="416.3" width="12.2" height="24.65" shape-rendering="crispEdges"/><rect fill="#1e1e1e" x="1732.4" y="416.3" width="146.4" height="24.65" shape-rendering="crispEdges"/><rect fill="#14191f" x="1878.8" y="416.3" width="24.4" height="24.65" shape-rendering="crispEdges"/><rect fill="#1e1e1e" x="0" y="440.7" width="366" height="24.65" shape-rendering="crispEdges"/><rect fill="#1e1e1e" x="366" y="440.7" width="146.4" height="24.65" shape-rendering="crispEdges"/><rect fill="#262626" x="512.4" y="440.7" width="12.2" height="24.65" shape-rendering="crispEdges"/><rect fill="#262626" x="524.6" y="440.7" width="24.4" height="24.65" shape-rendering="crispEdges"/><rect fill="#262626" x="549" y="440.7" width="1146.8" height="24.65" shape-rendering="crispEdges"/><rect fill="#262626" x="1695.8" y="440.7" width="24.4" height="24.65" shape-rendering="crispEdges"/><rect fill="#004578" x="1720.2" y="440.7" width="12.2" height="24.65" shape-rendering="crispEdges"/><rect fill="#1e1e1e" x="1732.4" y="440.7" width="146.4" height="24.65" shape-rendering="crispEdges"/><rect fill="#14191f" x="1878.8" y="440.7" width="24.4" height="24.65" shape-rendering="crispEdges"/><rect fill="#1e1e1e" x="0" y="465.1" width="366" height="24.65" shape-rendering="crispEdges"/><rect fill="#1e1e1e" x="366" y="465.1" width="146.4" height="24.65" shape-rendering="crispEdges"/><rect fill="#262626" x="512.4" y="465.1" width="12.2" height="24.65" shape-rendering="crispEdges"/><rect fill="#262626" x="524.6" y="465.1" width="24.4" height="24.65" shape-rendering="crispEdges"/><rect fill="#262626" x="549" y="465.1" width="85.4" height="24.65" shape-rendering="crispEdges"/><rect fill="#262626" x="634.4" y="465.1" width="1061.4" height="24.65" shape-rendering="crispEdges"/><rect fill="#262626" x="1695.8" y="465.1" width="24.4" height="24.65" shape-rendering="crispEdges"/><rect fill="#004578" x="1720.2" y="465.1" width="12.2" height="24.65" shape-rendering="crispEdges"/><rect fill="#1e1e1e" x="1732.4" y="465.1" width="146.4" height="24.65" shape-rendering="crispEdges"/><rect fill="#14191f" x="1878.8" y="465.1" width="24.4" height="24.65" shape-rendering="crispEdges"/><rect fill="#1e1e1e" x="0" y="489.5" width="366" height="24.65" shape-rendering="crispEdges"/><rect fill="#1e1e1e" x="366" y="489.5" width="146.4" height="24.65" shape-rendering="crispEdges"/><rect fill="#262626" x="512.4" y="489.5" width="12.2" height="24.65" shape-rendering="crispEdges"/><rect fill="#262626" x="524.6" y="489.5" width="24.4" height="24.65" shape-rendering="crispEdges"/><rect fill="#262626" x="549" y="489.5" width="1146.8" height="24.65" shape-rendering="crispEdges"/><rect fill="#262626" x="1695.8" y="489.5" width="24.4" height="24.65" shape-rendering="crispEdges"/><rect fill="#004578" x="1720.2" y="489.5" width="12.2" height="24.65" shape-rendering="crispEdges"/><rect fill="#1e1e1e" x="1732.4" y="489.5" width="146.4" height="24.65" shape-rendering="crispEdges"/><rect fill="#14191f" x="1878.8" y="489.5" width="24.4" height="24.65" shape-rendering="crispEdges"/><rect fill="#1e1e1e" x="0" y="513.9" width="366" height="24.65" shape-rendering="crispEdges"/><rect fill="#1e1e1e" x="366" y="513.9" width="146.4" height="24.65" shape-rendering="crispEdges"/><rect fill="#262626" x="512.4" y="513.9" width="12.2" height="24.65" shape-rendering="crispEdges"/><rect fill="#262626" x="524.6" y="513.9" width="24.4" height="24.65" shape-rendering="crispEdges"/><rect fill="#4ebf71" x="549" y="513.9" width="1146.8" height="24.65" shape-rendering="crispEdges"/><rect fill="#262626" x="1695.8" y="513.9" width="24.4" height="24.65" shape-rendering="crispEdges"/><rect fill="#004578" x="1720.2" y="513.9" width="12.2" height="24.65" shape-rendering="crispEdges"/><rect fill="#1e1e1e" x="1732.4" y="513.9" width="146.4" height="24.65" shape-rendering="crispEdges"/><rect fill="#14191f" x="1878.8" y="513.9" width="24.4" height="24.65" shape-rendering="crispEdges"/><rect fill="#1e1e1e" x="0" y="538.3" width="366" height="24.65" shape-rendering="crispEdges"/><rect fill="#1e1e1e" x="366" y="538.3" width="146.4" height="24.65" shape-rendering="crispEdges"/><rect fill="#262626" x="512.4" y="538.3" width="12.2" height="24.65" shape-rendering="crispEdges"/><rect fill="#262626" x="524.6" y="538.3" width="24.4" height="24.65" shape-rendering="crispEdges"/><rect fill="#4ebf71" x="549" y="538.3" width="524.6" height="24.65" shape-rendering="crispEdges"/><rect fill="#4ebf71" x="1073.6" y="538.3" width="85.4" height="24.65" shape-rendering="crispEdges"/><rect fill="#4ebf71" x="1159" y="538.3" width="536.8" height="24.65" shape-rendering="crispEdges"/><rect fill="#262626" x="1695.8" y="538.3" width="24.4" height="24.65" shape-rendering="crispEdges"/><rect fill="#004578" x="1720.2" y="538.3" width="12.2" height="24.65" shape-rendering="crispEdges"/><rect fill="#1e1e1e" x="1732.4" y="538.3" width="146.4" height="24.65" shape-rendering="crispEdges"/><rect fill="#14191f" x="1878.8" y="538.3" width="24.4" height="24.65" shape-rendering="crispEdges"/><rect fill="#1e1e1e" x="0" y="562.7" width="366" height="24.65" shape-rendering="crispEdges"/><rect fill="#1e1e1e" x="366" y="562.7" width="146.4" height="24.65" shape-rendering="crispEdges"/><rect fill="#262626" x="512.4" y="562.7" width="12.2" height="24.65" shape-rendering="crispEdges"/><rect fill="#262626" x="524.6" y="562.7" width="24.4" height="24.65" shape-rendering="crispEdges"/><rect fill="#4ebf71" x="549" y="562.7" width="1146.8" height="24.65" shape-rendering="crispEdges"/><rect fill="#262626" x="1695.8" y="562.7" width="24.4" height="24.65" shape-rendering="crispEdges"/><rect fill="#004578" x="1720.2" y="562.7" width="12.2" height="24.65" shape-rendering="crispEdges"/><rect fill="#1e1e1e" x="1732.4" y="562.7" width="146.4" height="24.65" shape-rendering="crispEdges"/><rect fill="#14191f" x="1878.8" y="562.7" width="24.4" height="24.65" shape-rendering="crispEdges"/><rect fill="#1e1e1e" x="0" y="587.1" width="366" height="24.65" shape-rendering="crispEdges"/><rect fill="#1e1e1e" x="366" y="587.1" width="146.4" height="24.65" shape-rendering="crispEdges"/><rect fill="#262626" x="512.4" y="587.1" width="12.2" height="24.65" shape-rendering="crispEdges"/><rect fill="#262626" x="524.6" y="587.1" width="1195.6" height="24.65" shape-rendering="crispEdges"/><rect fill="#004578" x="1720.2" y="587.1" width="12.2" height="24.65" shape-rendering="crispEdges"/><rect fill="#1e1e1e" x="1732.4" y="587.1" width="146.4" height="24.65" shape-rendering="crispEdges"/><rect fill="#14191f" x="1878.8" y="587.1" width="24.4" height="24.65" shape-rendering="crispEdges"/><rect fill="#1e1e1e" x="0" y="611.5" width="366" height="24.65" shape-rendering="crispEdges"/><rect fill="#1e1e1e" x="366" y="611.5" width="146.4" height="24.65" shape-rendering="crispEdges"/><rect fill="#1e1e1e" x="512.4" y="611.5" width="12.2" height="24.65" shape-rendering="crispEdges"/><rect fill="#1e1e1e" x="524.6" y="611.5" width="1195.6" height="24.65" shape-rendering="crispEdges"/><rect fill="#1e1e1e" x="1720.2" y="611.5" width="12.2" height="24.65" shape-rendering="crispEdges"/><rect fill="#1e1e1e" x="1732.4" y="611.5" width="146.4" height="24.65" shape-rendering="crispEdges"/><rect fill="#14191f" x="1878.8" y="611.5" width="24.4" height="24.65" shape-rendering="crispEdges"/><rect fill="#1e1e1e" x="0" y="635.9" width="366" height="24.65" shape-rendering="crispEdges"/><rect fill="#1e1e1e" x="366" y="635.9" width="1512.8" height="24.65" shape-rendering="crispEdges"/><rect fill="#14191f" x="1878.8" y="635.9" width="24.4" height="24.65" shape-rendering="crispEdges"/><rect fill="#1e1e1e" x="0" y="660.3" width="366" height="24.65" shape-rendering="crispEdges"/><rect fill="#1e1e1e" x="366" y="660.3" width="1512.8" height="24.65" shape-rendering="crispEdges"/><rect fill="#14191f" x="1878.8" y="660.3" width="24.4" height="24.65" shape-rendering="crispEdges"/><rect fill="#1e1e1e" x="0" y="684.7" width="366" height="24.65" shape-rendering="crispEdges"/><rect fill="#1e1e1e" x="366" y="684.7" width="1512.8" height="24.65" shape-rendering="crispEdges"/><rect fill="#14191f" x="1878.8" y="684.7" width="24.4" height="24.65" shape-rendering="crispEdges"/><rect fill="#1e1e1e" x="0" y="709.1" width="366" height="24.65" shape-rendering="crispEdges"/><rect fill="#1e1e1e" x="366" y="709.1" width="1512.8" height="24.65" shape-rendering="crispEdges"/><rect fill="#14191f" x="1878.8" y="709.1" width="24.4" height="24.65" shape-rendering="crispEdges"/><rect fill="#1e1e1e" x="0" y="733.5" width="366" height="24.65" shape-rendering="crispEdges"/><rect fill="#1e1e1e" x="366" y="733.5" width="1512.8" height="24.65" shape-rendering="crispEdges"/><rect fill="#14191f" x="1878.8" y="733.5" width="24.4" height="24.65" shape-rendering="crispEdges"/><rect fill="#1e1e1e" x="0" y="757.9" width="366" height="24.65" shape-rendering="crispEdges"/><rect fill="#1e1e1e" x="366" y="757.9" width="1512.8" height="24.65" shape-rendering="crispEdges"/><rect fill="#14191f" x="1878.8" y="757.9" width="24.4" height="24.65" shape-rendering="crispEdges"/><rect fill="#1e1e1e" x="0" y="782.3" width="366" height="24.65" shape-rendering="crispEdges"/><rect fill="#1e1e1e" x="366" y="782.3" width="1512.8" height="24.65" shape-rendering="crispEdges"/><rect fill="#14191f" x="1878.8" y="782.3" width="24.4" height="24.65" shape-rendering="crispEdges"/><rect fill="#1e1e1e" x="0" y="806.7" width="366" height="24.65" shape-rendering="crispEdges"/><rect fill="#1e1e1e" x="366" y="806.7" width="1512.8" height="24.65" shape-rendering="crispEdges"/><rect fill="#14191f" x="1878.8" y="806.7" width="24.4" height="24.65" shape-rendering="crispEdges"/><rect fill="#1e1e1e" x="0" y="831.1" width="366" height="24.65" shape-rendering="crispEdges"/><rect fill="#1e1e1e" x="366" y="831.1" width="1512.8" height="24.65" shape-rendering="crispEdges"/><rect fill="#14191f" x="1878.8" y="831.1" width="24.4" height="24.65" shape-rendering="crispEdges"/><rect fill="#1e1e1e" x="0" y="855.5" width="366" height="24.65" shape-rendering="crispEdges"/><rect fill="#1e1e1e" x="366" y="855.5" width="1512.8" height="24.65" shape-rendering="crispEdges"/><rect fill="#14191f" x="1878.8" y="855.5" width="24.4" height="24.65" shape-rendering="crispEdges"/><rect fill="#1e1e1e" x="0" y="879.9" width="366" height="24.65" shape-rendering="crispEdges"/><rect fill="#1e1e1e" x="366" y="879.9" width="1512.8" height="24.65" shape-rendering="crispEdges"/><rect fill="#14191f" x="1878.8" y="879.9" width="24.4" height="24.65" shape-rendering="crispEdges"/><rect fill="#1e1e1e" x="0" y="904.3" width="366" height="24.65" shape-rendering="crispEdges"/><rect fill="#1e1e1e" x="366" y="904.3" width="1512.8" height="24.65" shape-rendering="crispEdges"/><rect fill="#14191f" x="1878.8" y="904.3" width="24.4" height="24.65" shape-rendering="crispEdges"/><rect fill="#1e1e1e" x="0" y="928.7" width="366" height="24.65" shape-rendering="crispEdges"/><rect fill="#1e1e1e" x="366" y="928.7" width="1512.8" height="24.65" shape-rendering="crispEdges"/><rect fill="#14191f" x="1878.8" y="928.7" width="24.4" height="24.65" shape-rendering="crispEdges"/><rect fill="#0053aa" x="0" y="953.1" width="97.6" height="24.65" shape-rendering="crispEdges"/><rect fill="#0178d4" x="97.6" y="953.1" width="109.8" height="24.65" shape-rendering="crispEdges"/><rect fill="#0053aa" x="207.4" y="953.1" width="97.6" height="24.65" shape-rendering="crispEdges"/><rect fill="#0178d4" x="305" y="953.1" width="219.6" height="24.65" shape-rendering="crispEdges"/><rect fill="#fea62b" x="524.6" y="953.1" width="97.6" height="24.65" shape-rendering="crispEdges"/><rect fill="#0065be" x="622.2" y="953.1" width="146.4" height="24.65" shape-rendering="crispEdges"/><rect fill="#0053aa" x="768.6" y="953.1" width="48.8" height="24.65" shape-rendering="crispEdges"/><rect fill="#0178d4" x="817.4" y="953.1" width="85.4" height="24.65" shape-rendering="crispEdges"/><rect fill="#0053aa" x="902.8" y="953.1" width="97.6" height="24.65" shape-rendering="crispEdges"/><rect fill="#0178d4" x="1000.4" y="953.1" width="73.2" height="24.65" shape-rendering="crispEdges"/><rect fill="#0178d4" x="1073.6" y="953.1" width="829.6" height="24.65" shape-rendering="crispEdges"/>
    <g class="terminal-3247667630-matrix">
    <text class="terminal-3247667630-r2" x="12.2" y="20" textLength="12.2" clip-path="url(#terminal-3247667630-line-0)">⭘</text><text class="terminal-3247667630-r2" x="866.2" y="20" textLength="146.4" clip-path="url(#terminal-3247667630-line-0)">Textual&#160;Demo</text><text class="terminal-3247667630-r1" x="1903.2" y="20" textLength="12.2" clip-path="url(#terminal-3247667630-line-0)">
</text><text class="terminal-3247667630-r1" x="1903.2" y="44.4" textLength="12.2" clip-path="url(#terminal-3247667630-line-1)">
</text><text class="terminal-3247667630-r1" x="1903.2" y="68.8" textLength="12.2" clip-path="url(#terminal-3247667630-line-2)">
</text><text class="terminal-3247667630-r4" x="170.8" y="93.2" textLength="36.6" clip-path="url(#terminal-3247667630-line-3)">TOP</text><text class="terminal-3247667630-r1" x="1903.2" y="93.2" textLength="12.2" clip-path="url(#terminal-3247667630-line-3)">
</text><text class="terminal-3247667630-r1" x="1903.2" y="117.6" textLength="12.2" clip-path="url(#terminal-3247667630-line-4)">
</text><text class="terminal-3247667630-r1" x="1903.2" y="142" textLength="12.2" clip-path="url(#terminal-3247667630-line-5)">
</text><text class="terminal-3247667630-r1" x="1903.2" y="166.4" textLength="12.2" clip-path="url(#terminal-3247667630-line-6)">
</text><text class="terminal-3247667630-r4" x="146.4" y="190.8" textLength="85.4" clip-path="url(#terminal-3247667630-line-7)">Widgets</text><text class="terminal-3247667630-r1" x="1903.2" y="190.8" textLength="12.2" clip-path="url(#terminal-3247667630-line-7)">
</text><text class="terminal-3247667630-r5" x="1878.8" y="215.2" textLength="24.4" clip-path="url(#terminal-3247667630-line-8)">▁▁</text><text class="terminal-3247667630-r1" x="1903.2" y="215.2" textLength="12.2" clip-path="url(#terminal-3247667630-line-8)">
</text><text class="terminal-3247667630-r1" x="1903.2" y="239.6" textLength="12.2" clip-path="url(#terminal-3247667630-line-9)">
</text><text class="terminal-3247667630-r1" x="1903.2" y="264" textLength="12.2" clip-path="url(#terminal-3247667630-line-10)">
</text><text class="terminal-3247667630-r4" x="109.8" y="288.4" textLength="146.4" clip-path="url(#terminal-3247667630-line-11)">Rich&#160;content</text><text class="terminal-3247667630-r1" x="1903.2" y="288.4" textLength="12.2" clip-path="url(#terminal-3247667630-line-11)">
</text><text class="terminal-3247667630-r1" x="1903.2" y="312.8" textLength="12.2" clip-path="url(#terminal-3247667630-line-12)">
</text><text class="terminal-3247667630-r1" x="1903.2" y="337.2" textLength="12.2" clip-path="url(#terminal-3247667630-line-13)">
</text><text class="terminal-3247667630-r6" x="512.4" y="361.6" textLength="12.2" clip-path="url(#terminal-3247667630-line-14)">▁</text><text class="terminal-3247667630-r6" x="524.6" y="361.6" textLength="1195.6" clip-path="url(#terminal-3247667630-line-14)">▁▁▁▁▁▁▁▁▁▁▁▁▁▁▁▁▁▁▁▁▁▁▁▁▁▁▁▁▁▁▁▁▁▁▁▁▁▁▁▁▁▁▁▁▁▁▁▁▁▁▁▁▁▁▁▁▁▁▁▁▁▁▁▁▁▁▁▁▁▁▁▁▁▁▁▁▁▁▁▁▁▁▁▁▁▁▁▁▁▁▁▁▁▁▁▁▁▁</text><text class="terminal-3247667630-r6" x="1720.2" y="361.6" textLength="12.2" clip-path="url(#terminal-3247667630-line-14)">▁</text><text class="terminal-3247667630-r1" x="1903.2" y="361.6" textLength="12.2" clip-path="url(#terminal-3247667630-line-14)">
</text><text class="terminal-3247667630-r4" x="170.8" y="386" textLength="36.6" clip-path="url(#terminal-3247667630-line-15)">CSS</text><text class="terminal-3247667630-r6" x="512.4" y="386" textLength="12.2" clip-path="url(#terminal-3247667630-line-15)">▎</text><text class="terminal-3247667630-r7" x="1720.2" y="386" textLength="12.2" clip-path="url(#terminal-3247667630-line-15)">▊</text><text class="terminal-3247667630-r1" x="1903.2" y="386" textLength="12.2" clip-path="url(#terminal-3247667630-line-15)">
</text><text class="terminal-3247667630-r6" x="512.4" y="410.4" textLength="12.2" clip-path="url(#terminal-3247667630-line-16)">▎</text><text class="terminal-3247667630-r7" x="1720.2" y="410.4" textLength="12.2" clip-path="url(#terminal-3247667630-line-16)">▊</text><text class="terminal-3247667630-r1" x="1903.2" y="410.4" textLength="12.2" clip-path="url(#terminal-3247667630-line-16)">
</text><text class="terminal-3247667630-r6" x="512.4" y="434.8" textLength="12.2" clip-path="url(#terminal-3247667630-line-17)">▎</text><text class="terminal-3247667630-r8" x="1049.2" y="434.8" textLength="146.4" clip-path="url(#terminal-3247667630-line-17)">Textual&#160;Demo</text><text class="terminal-3247667630-r7" x="1720.2" y="434.8" textLength="12.2" clip-path="url(#terminal-3247667630-line-17)">▊</text><text class="terminal-3247667630-r1" x="1903.2" y="434.8" textLength="12.2" clip-path="url(#terminal-3247667630-line-17)">
</text><text class="terminal-3247667630-r6" x="512.4" y="459.2" textLength="12.2" clip-path="url(#terminal-3247667630-line-18)">▎</text><text class="terminal-3247667630-r7" x="1720.2" y="459.2" textLength="12.2" clip-path="url(#terminal-3247667630-line-18)">▊</text><text class="terminal-3247667630-r1" x="1903.2" y="459.2" textLength="12.2" clip-path="url(#terminal-3247667630-line-18)">
</text><text class="terminal-3247667630-r6" x="512.4" y="483.6" textLength="12.2" clip-path="url(#terminal-3247667630-line-19)">▎</text><text class="terminal-3247667630-r9" x="549" y="483.6" textLength="85.4" clip-path="url(#terminal-3247667630-line-19)">Welcome</text><text class="terminal-3247667630-r4" x="634.4" y="483.6" textLength="1061.4" clip-path="url(#terminal-3247667630-line-19)">!&#160;Textual&#160;is&#160;a&#160;framework&#160;for&#160;creating&#160;sophisticated&#160;applications&#160;with&#160;the&#160;terminal.&#160;&#160;&#160;&#160;</text><text class="terminal-3247667630-r7" x="1720.2" y="483.6" textLength="12.2" clip-path="url(#terminal-3247667630-line-19)">▊</text><text class="terminal-3247667630-r1" x="1903.2" y="483.6" textLength="12.2" clip-path="url(#terminal-3247667630-line-19)">
</text><text class="terminal-3247667630-r6" x="512.4" y="508" textLength="12.2" clip-path="url(#terminal-3247667630-line-20)">▎</text><text class="terminal-3247667630-r7" x="1720.2" y="508" textLength="12.2" clip-path="url(#terminal-3247667630-line-20)">▊</text><text class="terminal-3247667630-r1" x="1903.2" y="508" textLength="12.2" clip-path="url(#terminal-3247667630-line-20)">
</text><text class="terminal-3247667630-r6" x="512.4" y="532.4" textLength="12.2" clip-path="url(#terminal-3247667630-line-21)">▎</text><text class="terminal-3247667630-r10" x="549" y="532.4" textLength="1146.8" clip-path="url(#terminal-3247667630-line-21)">▔▔▔▔▔▔▔▔▔▔▔▔▔▔▔▔▔▔▔▔▔▔▔▔▔▔▔▔▔▔▔▔▔▔▔▔▔▔▔▔▔▔▔▔▔▔▔▔▔▔▔▔▔▔▔▔▔▔▔▔▔▔▔▔▔▔▔▔▔▔▔▔▔▔▔▔▔▔▔▔▔▔▔▔▔▔▔▔▔▔▔▔▔▔</text><text class="terminal-3247667630-r7" x="1720.2" y="532.4" textLength="12.2" clip-path="url(#terminal-3247667630-line-21)">▊</text><text class="terminal-3247667630-r1" x="1903.2" y="532.4" textLength="12.2" clip-path="url(#terminal-3247667630-line-21)">
</text><text class="terminal-3247667630-r6" x="512.4" y="556.8" textLength="12.2" clip-path="url(#terminal-3247667630-line-22)">▎</text><text class="terminal-3247667630-r11" x="1073.6" y="556.8" textLength="85.4" clip-path="url(#terminal-3247667630-line-22)">&#160;Start&#160;</text><text class="terminal-3247667630-r7" x="1720.2" y="556.8" textLength="12.2" clip-path="url(#terminal-3247667630-line-22)">▊</text><text class="terminal-3247667630-r1" x="1903.2" y="556.8" textLength="12.2" clip-path="url(#terminal-3247667630-line-22)">
</text><text class="terminal-3247667630-r6" x="512.4" y="581.2" textLength="12.2" clip-path="url(#terminal-3247667630-line-23)">▎</text><text class="terminal-3247667630-r12" x="549" y="581.2" textLength="1146.8" clip-path="url(#terminal-3247667630-line-23)">▁▁▁▁▁▁▁▁▁▁▁▁▁▁▁▁▁▁▁▁▁▁▁▁▁▁▁▁▁▁▁▁▁▁▁▁▁▁▁▁▁▁▁▁▁▁▁▁▁▁▁▁▁▁▁▁▁▁▁▁▁▁▁▁▁▁▁▁▁▁▁▁▁▁▁▁▁▁▁▁▁▁▁▁▁▁▁▁▁▁▁▁▁▁</text><text class="terminal-3247667630-r7" x="1720.2" y="581.2" textLength="12.2" clip-path="url(#terminal-3247667630-line-23)">▊</text><text class="terminal-3247667630-r1" x="1903.2" y="581.2" textLength="12.2" clip-path="url(#terminal-3247667630-line-23)">
</text><text class="terminal-3247667630-r6" x="512.4" y="605.6" textLength="12.2" clip-path="url(#terminal-3247667630-line-24)">▎</text><text class="terminal-3247667630-r7" x="1720.2" y="605.6" textLength="12.2" clip-path="url(#terminal-3247667630-line-24)">▊</text><text class="terminal-3247667630-r1" x="1903.2" y="605.6" textLength="12.2" clip-path="url(#terminal-3247667630-line-24)">
</text><text class="terminal-3247667630-r6" x="512.4" y="630" textLength="12.2" clip-path="url(#terminal-3247667630-line-25)">▔</text><text class="terminal-3247667630-r6" x="524.6" y="630" textLength="1195.6" clip-path="url(#terminal-3247667630-line-25)">▔▔▔▔▔▔▔▔▔▔▔▔▔▔▔▔▔▔▔▔▔▔▔▔▔▔▔▔▔▔▔▔▔▔▔▔▔▔▔▔▔▔▔▔▔▔▔▔▔▔▔▔▔▔▔▔▔▔▔▔▔▔▔▔▔▔▔▔▔▔▔▔▔▔▔▔▔▔▔▔▔▔▔▔▔▔▔▔▔▔▔▔▔▔▔▔▔▔</text><text class="terminal-3247667630-r6" x="1720.2" y="630" textLength="12.2" clip-path="url(#terminal-3247667630-line-25)">▔</text><text class="terminal-3247667630-r1" x="1903.2" y="630" textLength="12.2" clip-path="url(#terminal-3247667630-line-25)">
</text><text class="terminal-3247667630-r1" x="1903.2" y="654.4" textLength="12.2" clip-path="url(#terminal-3247667630-line-26)">
</text><text class="terminal-3247667630-r1" x="1903.2" y="678.8" textLength="12.2" clip-path="url(#terminal-3247667630-line-27)">
</text><text class="terminal-3247667630-r1" x="1903.2" y="703.2" textLength="12.2" clip-path="url(#terminal-3247667630-line-28)">
</text><text class="terminal-3247667630-r1" x="1903.2" y="727.6" textLength="12.2" clip-path="url(#terminal-3247667630-line-29)">
</text><text class="terminal-3247667630-r1" x="1903.2" y="752" textLength="12.2" clip-path="url(#terminal-3247667630-line-30)">
</text><text class="terminal-3247667630-r1" x="1903.2" y="776.4" textLength="12.2" clip-path="url(#terminal-3247667630-line-31)">
</text><text class="terminal-3247667630-r1" x="1903.2" y="800.8" textLength="12.2" clip-path="url(#terminal-3247667630-line-32)">
</text><text class="terminal-3247667630-r1" x="1903.2" y="825.2" textLength="12.2" clip-path="url(#terminal-3247667630-line-33)">
</text><text class="terminal-3247667630-r1" x="1903.2" y="849.6" textLength="12.2" clip-path="url(#terminal-3247667630-line-34)">
</text><text class="terminal-3247667630-r1" x="1903.2" y="874" textLength="12.2" clip-path="url(#terminal-3247667630-line-35)">
</text><text class="terminal-3247667630-r1" x="1903.2" y="898.4" textLength="12.2" clip-path="url(#terminal-3247667630-line-36)">
</text><text class="terminal-3247667630-r1" x="1903.2" y="922.8" textLength="12.2" clip-path="url(#terminal-3247667630-line-37)">
</text><text class="terminal-3247667630-r1" x="1903.2" y="947.2" textLength="12.2" clip-path="url(#terminal-3247667630-line-38)">
</text><text class="terminal-3247667630-r13" x="0" y="971.6" textLength="97.6" clip-path="url(#terminal-3247667630-line-39)">&#160;CTRL+B&#160;</text><text class="terminal-3247667630-r14" x="97.6" y="971.6" textLength="109.8" clip-path="url(#terminal-3247667630-line-39)">&#160;Sidebar&#160;</text><text class="terminal-3247667630-r13" x="207.4" y="971.6" textLength="97.6" clip-path="url(#terminal-3247667630-line-39)">&#160;CTRL+T&#160;</text><text class="terminal-3247667630-r14" x="305" y="971.6" textLength="219.6" clip-path="url(#terminal-3247667630-line-39)">&#160;Toggle&#160;Dark&#160;mode&#160;</text><text class="terminal-3247667630-r15" x="524.6" y="971.6" textLength="97.6" clip-path="url(#terminal-3247667630-line-39)">&#160;CTRL+S&#160;</text><text class="terminal-3247667630-r16" x="622.2" y="971.6" textLength="146.4" clip-path="url(#terminal-3247667630-line-39)">&#160;Screenshot&#160;</text><text class="terminal-3247667630-r13" x="768.6" y="971.6" textLength="48.8" clip-path="url(#terminal-3247667630-line-39)">&#160;F1&#160;</text><text class="terminal-3247667630-r14" x="817.4" y="971.6" textLength="85.4" clip-path="url(#terminal-3247667630-line-39)">&#160;Notes&#160;</text><text class="terminal-3247667630-r13" x="902.8" y="971.6" textLength="97.6" clip-path="url(#terminal-3247667630-line-39)">&#160;CTRL+Q&#160;</text><text class="terminal-3247667630-r14" x="1000.4" y="971.6" textLength="73.2" clip-path="url(#terminal-3247667630-line-39)">&#160;Quit&#160;</text>
    </g>
    </g>
</svg>
